<svg height="40" xmlns="http://www.w3.org/2000/svg" x="0px" y="0px" viewBox="0 0 852.9 237.7" style="enable-background:new 0 0 852.9 237.7;" fill="currentColor">
    <path d="M132.9,104.3V41.3c0-4.1,1-7.8,3-11.2c2-3.3,4.6-6,7.9-8c3.3-2,7-3,11.1-3c3.9,0,7.6,1,10.8,3c3.3,2,5.8,4.6,7.8,8c1.9,3.3,2.9,7.1,2.9,11.2v63.1L132.9,104.3L132.9,104.3z M177.4,5.8C170.8,1.9,163.3,0,154.8,0c-8.7,0-16.3,1.9-22.8,5.8c-6.5,3.9-11.7,9.2-15.4,15.8c-3.7,6.7-5.6,14.2-5.6,22.6v79.4c0,4.3-1,8-2.9,11.3c-1.9,3.3-4.4,5.9-7.6,7.9c-3.2,2-6.7,3-10.5,3c0,0-0.1,0-0.1,0v19.4c0,0,0.1,0,0.1,0c8.2,0,15.5-1.9,22-5.7c6.5-3.8,11.6-9,15.3-15.6c3.2-5.7,5-12.4,5.4-19.8h43.5v38.4h21.9V44.2c0-8.4-1.8-15.9-5.5-22.6C189,15,183.9,9.7,177.4,5.8"></path>
    <path d="M404.4,146.3c-3.8,0-7.3-1-10.5-3c-3.2-2-5.7-4.6-7.6-7.9c-1.9-3.3-2.9-7-2.9-11.3v-80c0-8.4-1.9-15.9-5.6-22.6c-3.7-6.7-8.9-12-15.4-15.8C356,1.9,348.3,0,339.7,0c-8.5,0-16,1.9-22.6,5.8c-3.7,2.2-7,4.9-9.7,8.1c-2.8-3.1-6-5.9-9.7-8.1C291.1,1.9,283.6,0,275,0c-8.7,0-16.3,1.9-22.8,5.8c-6.5,3.9-11.7,9.2-15.4,15.8c-3.7,6.7-5.6,14.2-5.6,22.6v118.1h21.9V41.3c0-4.1,1-7.8,3-11.2c2-3.3,4.6-6,7.9-8c3.3-2,7-3,11.1-3c3.9,0,7.6,1,10.8,3c3.3,2,5.9,4.6,7.8,8c1.9,3.3,2.8,7.1,2.8,11.2v0.8c0,0.7-0.1,1.4-0.1,2.2v118.1h0.1h21.8h0.1V44.2c0-0.7-0.1-1.4-0.1-2.2v-0.8c0-4.1,0.9-7.8,2.8-11.2c1.9-3.3,4.5-6,7.8-8c3.3-2,6.9-3,10.8-3c4.1,0,7.8,1,11.1,3c3.3,2,5.9,4.6,7.9,8c2,3.3,3,7.1,3,11.2v80c0,8.8,1.9,16.5,5.6,23.1c3.7,6.6,8.8,11.8,15.3,15.6c6.5,3.8,13.8,5.7,22,5.7c0,0,0.1,0,0.1,0v-19.4C404.5,146.3,404.5,146.3,404.4,146.3"></path>
    <polygon class="st0" points="30.9,2 30.4,2 1.1,2 1.1,21.3 30.4,21.3 30.4,21.3 30.4,58.8 30.4,162.4 52.3,162.4 52.3,58.8 52.3,21.3 89.6,21.3 89.6,2 "></polygon>
    <path d="M619.3,0.6c-8.2,0-15.5,1.9-22,5.7c-6.5,3.8-11.6,9-15.3,15.6c-3.7,6.6-5.6,14.3-5.6,23.1v79.4c0,4.1-1,7.8-3,11.2c-2,3.3-4.6,6-7.9,8c-3.3,2-7,3-11.1,3c-4,0-7.6-1-10.8-3c-3.3-2-5.9-4.6-7.8-8c-1.9-3.3-2.8-7.1-2.8-11.2V61h0V41.9c0-4.1,1-7.8,2.9-11.2c1.9-3.3,4.5-6,7.8-8c3.3-2,6.9-3,10.8-3c4,0,7.6,1,10.9,3l11.9-16.3c-6.5-3.9-14.1-5.8-22.8-5.8c-8.5,0-16,1.9-22.6,5.8c-6.5,3.9-11.6,9.2-15.3,15.8c-3.6,6.7-5.5,14.2-5.5,22.6V61v1v59.5c0,8.4,1.8,15.9,5.5,22.6c3.6,6.7,8.7,12,15.3,15.8c6.5,3.9,14.1,5.8,22.6,5.8c8.7,0,16.3-1.9,22.8-5.8c6.5-3.9,11.7-9.2,15.4-15.8c3.7-6.7,5.6-14.2,5.6-22.6V42.1c0-4.3,1-8,2.9-11.3c1.9-3.3,4.4-5.9,7.6-7.9c3.2-2,6.7-3,10.5-3c0,0,0.1,0,0.1,0V0.6C619.4,0.6,619.3,0.6,619.3,0.6"></path>
    <path d="M436.4,2.7H407V22h29.3v37.4v32.1v29.8c0,8.8,1.9,16.5,5.6,23.1c3.7,6.6,8.8,11.8,15.3,15.6c6.5,3.8,13.8,5.7,22,5.7c0,0,0.1,0,0.1,0v-19.4c0,0-0.1,0-0.1,0c-3.8,0-7.3-1-10.5-3c-3.2-2-5.7-4.6-7.6-7.9c-1.9-3.3-2.9-7-2.9-11.3V91.5V59.4V21.9h37V2.6L436.4,2.7L436.4,2.7L436.4,2.7z"></path>
    <path d="M518.3,227.1h5.2l-2.2-15.2l-0.3-2l-0.2,2L518.3,227.1z M510.1,236.9l6.7-37.1c0-0.1,0.1-0.2,0.3-0.2h7.8c0.1,0,0.2,0.1,0.3,0.2l6.4,37.1c0,0.2,0,0.3-0.2,0.3h-6c-0.1,0-0.2-0.1-0.3-0.3l-0.6-3.9h-7.4l-0.6,3.9c0,0.2-0.1,0.3-0.3,0.3h-6C510.2,237.1,510.1,237,510.1,236.9"></path>
    <path d="M543.8,237.7c-1.9,0-3.7-0.5-5.3-1.5c-1.6-1-2.9-2.3-3.8-3.9c-1-1.6-1.4-3.5-1.4-5.5v-17.1c0-1.9,0.5-3.7,1.4-5.4c1-1.6,2.2-2.9,3.8-3.9c1.6-1,3.4-1.5,5.3-1.5c2,0,3.8,0.5,5.4,1.4c1.6,1,2.9,2.2,3.8,3.9c0.9,1.6,1.4,3.4,1.4,5.5v2.5c0,0.1-0.1,0.2-0.3,0.2h-6.1c-0.1,0-0.2-0.1-0.2-0.2v-2.1c0-1.4-0.4-2.5-1.2-3.4c-0.8-0.9-1.7-1.4-2.9-1.4c-1,0-2,0.4-2.8,1.3c-0.8,0.9-1.2,1.9-1.2,3v17.1c0,1.2,0.4,2.2,1.2,3.1c0.8,0.9,1.7,1.3,2.8,1.3c1.2,0,2.1-0.4,2.9-1.2c0.8-0.8,1.2-1.9,1.2-3.1v-2.7h-3.8c-0.2,0-0.3-0.1-0.3-0.3v-6.1c0-0.2,0.1-0.3,0.3-0.3h10.1c0.1,0,0.2,0.1,0.2,0.3v9c0,2-0.5,3.8-1.4,5.5c-1,1.6-2.2,3-3.8,3.9C547.6,237.2,545.8,237.7,543.8,237.7"></path>
    <path d="M558.5,237.1c-0.1,0-0.2-0.1-0.2-0.3l0.1-37.1c0-0.1,0.1-0.2,0.2-0.2h17.4c0.1,0,0.2,0.1,0.2,0.3v6.1c0,0.1-0.1,0.2-0.2,0.2h-11.1v8.4h11.1c0.1,0,0.2,0.1,0.2,0.2l0.1,6.1c0,0.1-0.1,0.2-0.2,0.2h-11.1v9.5h11.1c0.1,0,0.2,0.1,0.2,0.3v6.2c0,0.1-0.1,0.2-0.2,0.2L558.5,237.1L558.5,237.1z"></path>
    <path d="M581.5,237.1c-0.3,0-0.4-0.1-0.4-0.4l-0.1-36.8c0-0.3,0.1-0.4,0.4-0.4h4.9l9.1,21.3l-0.3-20.9c0-0.3,0.2-0.4,0.5-0.4h5.4c0.2,0,0.3,0.1,0.3,0.4l0.1,36.9c0,0.2-0.1,0.3-0.3,0.3h-4.8l-9.4-19.9l0.4,19.5c0,0.3-0.2,0.4-0.5,0.4L581.5,237.1L581.5,237.1z"></path>
    <path d="M616,237.7c-2,0-3.8-0.5-5.4-1.5c-1.6-1-2.9-2.3-3.8-4c-0.9-1.7-1.4-3.5-1.4-5.6l0.1-16.9c0-2,0.5-3.8,1.4-5.4c0.9-1.6,2.2-3,3.8-3.9c1.6-1,3.4-1.5,5.4-1.5c2,0,3.8,0.5,5.4,1.5c1.6,1,2.8,2.3,3.8,3.9c0.9,1.6,1.4,3.5,1.4,5.5v2.5c0,0.1-0.1,0.2-0.2,0.2h-6.1c-0.1,0-0.2-0.1-0.2-0.2v-2.5c0-1.2-0.4-2.2-1.2-3.1c-0.8-0.9-1.7-1.3-2.9-1.3c-1.3,0-2.3,0.4-3,1.3c-0.7,0.9-1,1.9-1,3.1v16.9c0,1.3,0.4,2.4,1.2,3.2c0.8,0.8,1.7,1.2,2.8,1.2c1.2,0,2.1-0.5,2.9-1.4c0.8-0.9,1.2-2,1.2-3.1v-2.5c0-0.1,0.1-0.2,0.2-0.2h6.1c0.1,0,0.2,0.1,0.2,0.2v2.5c0,2.1-0.5,3.9-1.4,5.6c-1,1.7-2.2,3-3.8,4C619.8,237.2,618,237.7,616,237.7"></path>
    <path d="M634.7,237.1c-0.1,0-0.2-0.1-0.2-0.2l0.1-15.4l-7.2-21.8c0-0.1,0-0.2,0.2-0.2h6c0.2,0,0.3,0.1,0.3,0.2l4,14.5l4.1-14.5c0-0.1,0.1-0.2,0.3-0.2h6.1c0.1,0,0.2,0.1,0.2,0.2l-7.3,21.6l0.1,15.6c0,0.1-0.1,0.2-0.2,0.2L634.7,237.1L634.7,237.1z"></path>
    <path d="M668.6,237.7c-1.9,0-3.7-0.5-5.3-1.5c-1.6-1-2.9-2.3-3.8-3.9c-1-1.6-1.4-3.5-1.4-5.4v-2.5c0-0.2,0.1-0.3,0.3-0.3h6.1c0.1,0,0.2,0.1,0.2,0.3v2.5c0,1.2,0.4,2.2,1.2,3.1c0.8,0.9,1.7,1.3,2.9,1.3c1.1,0,2.1-0.4,2.9-1.3c0.8-0.9,1.2-1.9,1.2-3c0-1.3-0.9-2.5-2.6-3.5c-0.6-0.3-1.5-0.8-2.7-1.5c-1.2-0.7-2.4-1.3-3.5-1.9c-2-1.2-3.4-2.6-4.4-4.4c-1-1.7-1.4-3.7-1.4-5.9c0-2,0.5-3.8,1.5-5.4c1-1.6,2.3-2.9,3.9-3.8c1.6-0.9,3.3-1.4,5.2-1.4c1.9,0,3.7,0.5,5.3,1.4c1.6,1,2.9,2.2,3.8,3.8c1,1.6,1.4,3.4,1.4,5.4v4.4c0,0.1-0.1,0.2-0.2,0.2h-6.1c-0.1,0-0.2-0.1-0.2-0.2l-0.1-4.4c0-1.3-0.4-2.3-1.2-3.1c-0.8-0.8-1.7-1.2-2.8-1.2c-1.1,0-2.1,0.4-2.9,1.3c-0.8,0.8-1.2,1.8-1.2,3c0,1.2,0.3,2.2,0.8,3c0.5,0.8,1.4,1.6,2.8,2.3c0.2,0.1,0.5,0.3,1.1,0.6c0.5,0.3,1.1,0.6,1.7,0.9c0.6,0.3,1.2,0.6,1.6,0.9c0.5,0.3,0.8,0.4,0.9,0.5c1.8,1,3.2,2.2,4.3,3.7c1,1.5,1.6,3.3,1.6,5.4c0,2.1-0.5,3.9-1.4,5.5c-1,1.6-2.2,2.9-3.8,3.9C672.3,237.2,670.5,237.7,668.6,237.7"></path>
    <path d="M681.5,237.1c-0.1,0-0.2-0.1-0.2-0.2v-6.1c0-0.1,0.1-0.2,0.2-0.2h6.1c0.1,0,0.2,0.1,0.2,0.2v6.1c0,0.1-0.1,0.2-0.2,0.2H681.5z"></path>
    <path d="M698.9,214.5h4.6c1.1,0,2.1-0.4,3-1.2c0.9-0.8,1.3-1.8,1.3-3c0-1.2-0.4-2.1-1.3-3c-0.8-0.8-1.9-1.2-3-1.2h-4.6V214.5z M692.5,237.1c-0.1,0-0.2-0.1-0.2-0.3l0.1-37.1c0-0.1,0.1-0.2,0.2-0.2h10.9c2,0,3.7,0.5,5.4,1.4c1.6,1,3,2.2,3.9,3.8c1,1.6,1.5,3.4,1.5,5.4c0,1.3-0.2,2.5-0.6,3.6c-0.4,1.1-0.9,2-1.4,2.7c-0.5,0.7-1,1.3-1.5,1.6c2,2.2,2.9,4.7,2.9,7.6l0.1,11.1c0,0.2-0.1,0.3-0.3,0.3h-6.1c-0.1,0-0.2-0.1-0.2-0.2v-11.2c0-1.3-0.5-2.4-1.4-3.4c-0.9-1-2-1.4-3.4-1.4h-3.6l-0.1,15.9c0,0.2-0.1,0.3-0.2,0.3L692.5,237.1L692.5,237.1z"></path>
    <path d="M718.6,237.1c-0.1,0-0.2-0.1-0.2-0.2v-6.1c0-0.1,0.1-0.2,0.2-0.2h6.1c0.1,0,0.2,0.1,0.2,0.2v6.1c0,0.1-0.1,0.2-0.2,0.2H718.6z"></path>
    <path d="M738.8,231.1c1.1,0,2-0.4,2.8-1.3c0.8-0.9,1.2-1.9,1.2-3l-0.1-17.1c0-1.2-0.4-2.2-1.1-3c-0.8-0.8-1.7-1.2-2.9-1.2c-1.1,0-2.1,0.4-2.9,1.2c-0.8,0.8-1.2,1.8-1.2,3.1v17.1c0,1.2,0.4,2.2,1.2,3.1C736.7,230.7,737.7,231.1,738.8,231.1 M738.8,237.7c-1.9,0-3.7-0.5-5.3-1.5c-1.6-1-2.9-2.3-3.9-3.9c-1-1.6-1.5-3.5-1.5-5.4l0.1-17.1c0-2,0.5-3.8,1.4-5.4c1-1.6,2.2-2.9,3.9-3.9c1.6-1,3.4-1.5,5.3-1.5c1.9,0,3.7,0.5,5.3,1.5c1.6,1,2.9,2.3,3.8,3.9c1,1.6,1.4,3.4,1.4,5.4l0.1,17.1c0,2-0.5,3.8-1.4,5.4c-1,1.6-2.2,3-3.8,3.9C742.5,237.2,740.7,237.7,738.8,237.7"></path>
    <path d="M750.5,237.1c-0.1,0-0.2-0.1-0.2-0.2v-6.1c0-0.1,0.1-0.2,0.2-0.2h6.1c0.1,0,0.2,0.1,0.2,0.2v6.1c0,0.1-0.1,0.2-0.2,0.2H750.5z"></path>
    <g style="opacity: .64">
        <path d="M829.9,70.6v53.6c0,4.3-1,8-2.9,11.3c-1.9,3.3-4.4,5.9-7.6,7.9c-3.2,2-6.7,3-10.5,3c-3.8,0-7.3-1-10.6-3c-3.3-2-5.9-4.6-7.9-7.9c-2-3.3-3-7-3-11.3V70.6h-21.7v50.6c0,8.8,1.9,16.5,5.6,23.1c3.7,6.6,8.9,11.8,15.4,15.6c3.4,2,7.1,3.4,10.9,4.4v31.2c0,4.3-1,8-2.9,11.3c-1.9,3.3-4.4,5.9-7.6,7.9c-3.2,2-6.7,3-10.5,3c0,0-0.1,0-0.1,0v19.4c0,0,0.1,0,0.1,0c8.2,0,15.5-1.9,22-5.7c6.5-3.8,11.6-9,15.3-15.6c3.7-6.6,5.6-14.3,5.6-23.1v-28.2c4-0.9,7.8-2.4,11.3-4.5c6.5-3.8,11.6-9,15.3-15.6c3.7-6.6,5.6-14.3,5.6-23.1V70.6L829.9,70.6L829.9,70.6z"></path>
        <path d="M787.5,51v-6.7c0-8.4-1.9-15.9-5.6-22.6c-3.7-6.7-8.9-12-15.4-15.8C760,1.9,752.4,0,743.7,0c-8.5,0-16,1.9-22.6,5.8c-3.7,2.2-7,4.9-9.8,8.1c-2.8-3.1-6-5.9-9.7-8.1C695.1,1.9,687.6,0,679.1,0c-8.7,0-16.3,1.9-22.8,5.8c-6.5,3.9-11.7,9.2-15.4,15.8c-3.7,6.7-5.6,14.2-5.6,22.6v118.1h21.9V41.3c0-4.1,1-7.8,3-11.2c2-3.3,4.6-6,7.9-8c3.3-2,7-3,11.1-3c4,0,7.6,1,10.8,3c3.3,2,5.8,4.6,7.8,8c1.9,3.3,2.8,7.1,2.8,11.2v0.8c0,0.7-0.1,1.4-0.1,2.2v118.1h0.1h21.8h0.1V44.2c0-0.7-0.1-1.4-0.1-2.2v-0.8c0-4.1,0.9-7.8,2.8-11.2c1.9-3.3,4.5-6,7.8-8c3.3-2,6.9-3,10.8-3c4.1,0,7.8,1,11.1,3c3.3,2,5.9,4.6,7.9,8c2,3.3,3,7.1,3,11.2V51L787.5,51L787.5,51z"></path>
    </g>
</svg>